<svg height="262.760288" viewBox="0 0 1024 707.00002" width="380.575013" xmlns="http://www.w3.org/2000/svg" xmlns:xlink="http://www.w3.org/1999/xlink"><clipPath id="a"><path d="m70.7 430.5c0-156 129-282.9 287.6-282.9s287.6 126.9 287.6 282.9-129 282.8-287.6 282.8c-158.6.1-287.6-126.8-287.6-282.8m287.6-353.5c-197.5 0-358.3 158.6-358.3 353.5s160.8 353.5 358.3 353.5c197.6 0 358.3-158.6 358.3-353.5.1-194.9-160.7-353.5-358.3-353.5z"/></clipPath><linearGradient id="b" gradientTransform="matrix(162.0988 280.7633 280.7633 -162.0988 54021.121 -58962.789)" gradientUnits="userSpaceOnUse" x1="74.800301" x2="76.988297" y1="-234.9494" y2="-234.9494"><stop offset="0" stop-color="#fff"/><stop offset=".00000001956" stop-color="#fff"/><stop offset=".6089" stop-color="#d7d7d7"/><stop offset="1" stop-color="#d7d7d7"/></linearGradient><clipPath id="c"><path d="m35.3 430.5c0 175.4 144.9 318.2 323 318.2s323-142.7 323-318.2-144.9-318.2-323-318.2-323 142.8-323 318.2"/></clipPath><linearGradient id="d" gradientTransform="matrix(106.7681 212.1314 212.1314 -106.7681 42009.754 -41007.379)" gradientUnits="userSpaceOnUse" x1="75.539597" x2="77.7276" y1="-235.1067" y2="-235.1067"><stop offset="0" stop-color="#2a6dff"/><stop offset=".00000002445" stop-color="#2a6dff"/><stop offset=".4003" stop-color="#000096"/><stop offset="1" stop-color="#000096"/></linearGradient><g transform="translate(0 -77)"><path clip-path="url(#a)" d="m179.2 1094.4-485.4-840.6 843.7-487.1 485.4 840.6z" fill="url(#b)"/><path clip-path="url(#c)" d="m165.9 1008.2-386.1-767.2 771-388.1 386.1 767.2z" fill="url(#d)"/><g fill="#fff"><path d="m358.3 753.4c-180.6 0-327.6-144.8-327.6-322.8s147-322.8 327.6-322.8 327.6 144.8 327.6 322.8c0 177.9-146.9 322.8-327.6 322.8m0-636.4c-175.5 0-318.3 140.6-318.3 313.6 0 172.9 142.8 313.6 318.4 313.6s318.4-140.7 318.4-313.6c-.1-173-142.9-313.6-318.5-313.6"/><path d="m177.2 258.7h69v348.3h-89.1l-.2-220.1-63.6-.1-.1-60.4 46.2-1c.1 0 40.6 1.2 37.8-66.7"/><path d="m272.4 362.3c-.9-9.6-2.1-26.2 6.9-43.4 25.2-48.2 91.9-68.8 147.3-69.2 40.7-.3 90 2.2 125.5 23.9 33.7 20.6 63.4 69.3 44.2 108.8-7.7 15.8-32.7 37-51 38.5 0 0 55.3 8.7 66.9 61.9 5.5 25.3-5.5 70.2-19.4 89.4-28.6 39.4-82.5 53-128 55-58.8 2.5-141.9 2.1-179.1-52-9.8-14.3-17.4-30.3-21.1-47.3-4.8-25.1-4.3-35.4-4.3-35.4l92.8 1.3s-1.3 14.5 10.4 31.8c23.6 33.3 81 32.8 115.9 21 13-4.4 25.8-13.3 30.5-26.7 1.2-3.5 2.2-7.4 2.5-11.1.8-9.2-1.6-17.1-6.6-24.8-6.5-9.9-15.5-17.3-26.9-20.7-5-1.5-10.9-1.8-16-2.3-3.3-.3-6.5-.4-9.8-.2-6.3.3-12.7 0-19-.1-13-.1-26 0-39 0-2.9 0-5.8-.1-8.6-.1l-.9-64.9s81.7-2.9 82-3c28.4-1 42.5-33.8 28.7-56.3-11.8-19.3-38.3-21.2-58.8-21.5-32.7-.5-65.1 11.4-72 46.7.1.1-92.6.7-93.1.7"/></g><path d="m1024 562.8c0 120.9-98 219-219 219-120.9 0-219-98-219-219s98-219 219-219 219 98.1 219 219" fill="#202033"/><path d="m993.7 570.5h-34.2c-3.3 11.1-13.6 19.2-25.8 19.2-14.9 0-26.9-12-26.9-26.9s12-26.9 26.9-26.9c12.2 0 22.4 8.1 25.8 19.2h34.2c-3.8-29.8-29.2-52.8-60-52.8-33.4 0-60.5 27.1-60.5 60.5s27.1 60.5 60.5 60.5c30.8 0 56.3-23 60-52.8" fill="#f2f2f2"/><path d="m676.3 502.3c-33.4 0-60.5 27.1-60.5 60.5s27.1 60.5 60.5 60.5c17.6 0 26.9-11.4 26.9-11.4v10.4h33.6v-59.5c0-33.4-27.1-60.5-60.5-60.5m0 87.4c-14.9 0-26.9-12-26.9-26.9s12-26.9 26.9-26.9 26.9 12 26.9 26.9-12.1 26.9-26.9 26.9" fill="#f2f2f2"/><path d="m805 502.3c-16.3 0-26.9 8.8-26.9 8.8v-38.4h-33.6v90c0 33.4 27.1 60.5 60.5 60.5s60.5-27.1 60.5-60.5c0-33.3-27.1-60.4-60.5-60.4m0 87.4c-14.9 0-26.9-12-26.9-26.9s12-26.9 26.9-26.9c14.8 0 26.9 12 26.9 26.9s-12 26.9-26.9 26.9" fill="#f2f2f2"/></g></svg>