<svg width="233" height="121" viewBox="0 0 233 121" fill="none" xmlns="http://www.w3.org/2000/svg">
<path d="M15.6585 16.6804H21.6522V17.8959H15.6585V43.1281C15.6585 43.94 15.8016 44.5072 16.0861 44.8313C16.3706 45.1569 16.8397 45.3175 17.4934 45.3175C17.9825 45.3175 18.5331 45.1753 19.1452 44.8909C19.7573 44.6081 20.3079 44.1616 20.797 43.5532L21.7152 44.2824C19.8389 47.4854 16.9443 49.0861 13.0301 49.0861C10.217 49.0861 8.1161 48.3966 6.73035 47.0191C5.87368 46.1675 5.31384 45.1141 5.04776 43.8574C4.78169 42.6007 4.65096 40.8379 4.65096 38.5676V17.8974H0V16.682H4.64942V9.50704C6.85186 9.50704 8.83897 9.29453 10.6138 8.86798C12.3872 8.44296 14.0698 7.76415 15.6601 6.83154V16.682L15.6585 16.6804Z" fill="#009A4F"/>
<path d="M37.1277 20.3893C38.9625 17.35 42.2047 15.8287 46.8525 15.8287C50.1147 15.8287 52.4186 16.6406 53.7644 18.2612C54.3765 18.9904 54.8241 19.9735 55.1101 21.2103C55.3947 22.4472 55.5377 24.0785 55.5377 26.1042V42.5822C55.5377 44.2441 55.7915 45.3892 56.3021 46.0176C56.8112 46.6459 57.6986 46.9609 58.9629 46.9609V48.2375C54.5595 48.0754 51.7034 47.9944 50.3992 47.9944C49.0134 47.9944 46.1174 48.0754 41.714 48.2375V46.9609C42.7737 46.9609 43.5074 46.6475 43.9165 46.0176C44.324 45.3892 44.5286 44.2456 44.5286 42.5822V22.8217C44.5286 21.5253 44.2933 20.5621 43.8257 19.9337C43.3566 19.3054 42.5922 18.9904 41.5325 18.9904C40.3498 18.9904 39.3193 19.4063 38.4442 20.2364C37.566 21.0681 37.1292 22.1124 37.1292 23.3675V42.5807C37.1292 44.2426 37.3322 45.3877 37.7413 46.016C38.1489 46.6444 38.8825 46.9593 39.9438 46.9593V48.2359C35.8665 48.0739 33.175 47.9928 31.8707 47.9928C30.4834 47.9928 27.4259 48.0739 22.6965 48.2359V46.9593C23.9592 46.9593 24.8466 46.6459 25.3572 46.016C25.8663 45.3877 26.1216 44.2441 26.1216 42.5807V7.98571C26.1216 6.12204 25.8663 4.76288 25.3572 3.91131C24.8466 3.05973 23.9592 2.63471 22.6965 2.63471V1.35812C23.9592 1.4789 25.225 1.54005 26.4892 1.54005C30.7295 1.54005 34.2777 1.25721 37.1323 0.688477V20.3878L37.1277 20.3893Z" fill="#009A4F"/>
<path d="M85.7736 38.3871L86.8133 38.7525C85.9166 41.5901 84.397 44.0225 82.2561 46.0483C80.1152 48.0755 77.3729 49.0876 74.0293 49.0876C69.7474 49.0876 66.3223 47.7713 63.7538 45.1355C61.1853 42.5013 59.8995 38.2862 59.8995 32.4888C59.8995 26.6914 61.3376 22.7714 64.2121 19.9935C67.0867 17.2171 70.8887 15.8289 75.6196 15.8289C83.3266 15.8289 87.1793 20.3696 87.1793 29.4479H71.3993C71.3577 29.9341 71.3378 30.6634 71.3378 31.6372C71.3378 35.5282 72.0206 38.3061 73.3864 39.9665C74.7521 41.6283 76.4147 42.46 78.3711 42.46C81.3472 42.46 83.8157 41.1024 85.772 38.3871H85.7736ZM71.1547 28.2936H78.2496C78.2896 25.0509 78.0558 22.3953 77.5467 20.3283C77.0361 18.2613 76.2517 17.2278 75.192 17.2278C72.9081 17.2278 71.5623 20.9169 71.1547 28.2936Z" fill="#009A4F"/>
<path d="M32.6013 65.8606C33.2134 66.5899 33.661 67.573 33.947 68.8098C34.2316 70.0466 34.3762 71.6779 34.3762 73.7037V90.1817C34.3762 91.8436 34.6299 92.9887 35.1405 93.617C35.6496 94.2454 36.5371 94.5603 37.8013 94.5603V95.8369C33.398 95.6749 30.5419 95.5939 29.2376 95.5939C27.8504 95.5939 24.9558 95.6749 20.5525 95.8369V94.5603C21.6122 94.5603 22.3458 94.2469 22.7549 93.617C23.1625 92.9887 23.367 91.8451 23.367 90.1817V70.4212C23.367 69.1247 23.1317 68.1616 22.6642 67.5332C22.1951 66.9048 21.4307 66.5899 20.371 66.5899C19.1883 66.5899 18.1578 67.0058 17.2827 67.8359C16.406 68.6676 15.9677 69.7118 15.9677 70.967V90.1802C15.9677 91.842 16.1707 92.9872 16.5798 93.6155C16.9874 94.2439 17.721 94.5588 18.7822 94.5588V95.8354C14.7034 95.6734 12.0119 95.5923 10.7076 95.5923C9.32189 95.5923 6.26278 95.6734 1.53339 95.8354V94.5588C2.79763 94.5588 3.68353 94.2454 4.19415 93.6155C4.70323 92.9872 4.95854 91.8436 4.95854 90.1802V70.9059C4.95854 69.0422 4.70323 67.683 4.19415 66.833C3.68353 65.9814 2.7961 65.5564 1.53339 65.5564V64.2798C2.83762 64.4021 4.10187 64.4617 5.32613 64.4617C9.56644 64.4617 13.1146 64.1789 15.9692 63.6102V67.9888C17.804 64.9494 21.0462 63.4282 25.6941 63.4282C28.9562 63.4282 31.2601 64.24 32.6059 65.8606H32.6013Z" fill="#26393B"/>
<path d="M64.6105 85.9865L65.6502 86.3519C64.7535 89.1895 63.234 91.6219 61.093 93.6476C58.9521 95.6749 56.2098 96.687 52.8662 96.687C48.5844 96.687 45.1592 95.3706 42.5907 92.7349C40.0222 90.1007 38.7365 85.8856 38.7365 80.0882C38.7365 74.2908 40.1745 70.3708 43.049 67.5928C45.9236 64.8164 49.7256 63.4282 54.4565 63.4282C62.1635 63.4282 66.0162 67.9689 66.0162 77.0473H50.2362C50.1947 77.5335 50.1747 78.2627 50.1747 79.2366C50.1747 83.1276 50.8575 85.9055 52.2233 87.5658C53.5891 89.2277 55.2517 90.0594 57.208 90.0594C60.1841 90.0594 62.6526 88.7018 64.6089 85.9865H64.6105ZM49.9916 75.893H57.0865C57.1265 72.6503 56.8927 69.9947 56.3836 67.9277C55.873 65.8606 55.0886 64.8271 54.0289 64.8271C51.745 64.8271 50.3992 68.5163 49.9916 75.893Z" fill="#26393B"/>
<path d="M115.531 64.2798V65.5564C114.674 65.8805 113.89 66.4783 113.176 67.3497C112.463 68.2212 111.8 69.5895 111.188 71.4532L103.542 95.8354C102.89 95.7544 101.91 95.7146 100.606 95.7146C99.3019 95.7146 98.2607 95.7559 97.6086 95.8354L90.3292 74.7983L84.7631 95.8354C84.1094 95.7544 83.1313 95.7146 81.827 95.7146C80.5228 95.7146 79.4815 95.7559 78.8294 95.8354L69.4106 68.9611C68.9215 67.5424 68.3709 66.6205 67.7588 66.1939C67.1467 65.7689 66.5161 65.5564 65.8624 65.5564V64.2798C69.083 64.5229 72.7127 64.6452 76.75 64.6452C78.7879 64.6452 81.4379 64.5229 84.7016 64.2798V65.5564C83.4373 65.5564 82.5299 65.6573 81.9793 65.8606C81.4287 66.064 81.1534 66.4691 81.1534 67.0761C81.1534 67.1968 81.1934 67.4613 81.2749 67.8665L86.3519 84.7084L91.6119 64.3394H91.6734C92.9776 64.4204 93.9573 64.4602 94.6095 64.4602C95.4246 64.4602 96.6073 64.4204 98.1577 64.3394L105.131 86.5935L107.761 77.8988C108.413 75.6698 108.739 73.7251 108.739 72.0617C108.739 70.0359 108.29 68.475 107.393 67.3803C106.497 66.2856 105.293 65.6772 103.785 65.5564V64.2798C105.293 64.4418 107.64 64.5229 110.82 64.5229C113.144 64.5229 114.714 64.4418 115.53 64.2798H115.531Z" fill="#26393B"/>
<path d="M135.722 90.1816C135.722 91.8435 135.976 92.9886 136.487 93.6169C136.996 94.2453 137.883 94.5602 139.147 94.5602V95.8368C134.742 95.6748 131.848 95.5937 130.462 95.5937C129.076 95.5937 126.017 95.6748 121.288 95.8368V94.5602C122.552 94.5602 123.438 94.2468 123.949 93.6169C124.458 92.9886 124.713 91.845 124.713 90.1816V55.5851C124.713 53.7214 124.458 52.3622 123.949 51.5107C123.438 50.6591 122.551 50.2341 121.288 50.2341V48.9575C122.552 49.0783 123.816 49.1394 125.081 49.1394C129.321 49.1394 132.869 48.8566 135.724 48.2878V90.1801L135.722 90.1816Z" fill="#26393B"/>
<path d="M166.152 85.9865L167.191 86.3519C166.295 89.1895 164.775 91.6219 162.634 93.6476C160.493 95.6749 157.751 96.687 154.407 96.687C150.126 96.687 146.7 95.3706 144.132 92.7349C141.563 90.1007 140.278 85.8856 140.278 80.0882C140.278 74.2908 141.716 70.3708 144.59 67.5928C147.465 64.8164 151.267 63.4282 155.998 63.4282C163.705 63.4282 167.557 67.9689 167.557 77.0473H151.776C151.734 77.5335 151.714 78.2627 151.714 79.2366C151.714 83.1276 152.397 85.9055 153.763 87.5658C155.129 89.2277 156.791 90.0594 158.748 90.0594C161.724 90.0594 164.192 88.7018 166.149 85.9865H166.152ZM151.533 75.893H158.628C158.668 72.6503 158.434 69.9947 157.925 67.9277C157.414 65.8606 156.63 64.8271 155.57 64.8271C153.286 64.8271 151.94 68.5163 151.533 75.893Z" fill="#26393B"/>
<path d="M201.952 93.2225C202.461 94.0741 203.349 94.4991 204.613 94.4991V95.7757C203.349 95.6549 202.084 95.5937 200.82 95.5937C196.578 95.5937 193.032 95.8766 190.177 96.4453V92.1278C189.32 93.7087 188.311 94.8645 187.149 95.5937C185.986 96.323 184.508 96.6884 182.715 96.6884C178.962 96.6884 175.944 95.3002 173.662 92.5238C171.378 89.7474 170.237 85.5216 170.237 79.8465C170.237 74.1714 171.45 70.3722 173.876 67.5942C176.301 64.8178 179.616 63.4296 183.816 63.4296C186.424 63.4296 188.545 63.9372 190.177 64.9493V55.5851C190.177 53.7214 189.922 52.3622 189.413 51.5107C188.902 50.6591 188.016 50.2341 186.752 50.2341V48.9575C188.016 49.0783 189.28 49.1394 190.545 49.1394C194.785 49.1394 198.333 48.8566 201.188 48.2878V89.1466C201.188 91.0118 201.441 92.3694 201.952 93.221V93.2225ZM188.864 92.2792C189.74 91.449 190.179 90.4048 190.179 89.1481V66.2259C189.282 65.7 188.322 65.4355 187.304 65.4355C185.386 65.4355 183.97 66.6418 183.053 69.0528C182.135 71.4653 181.676 75.1239 181.676 80.0269C181.676 84.93 182.044 88.509 182.778 90.5149C183.511 92.5207 184.511 93.5252 185.775 93.5252C186.958 93.5252 187.987 93.1094 188.864 92.2792Z" fill="#26393B"/>
<path d="M231.594 85.9865L232.634 86.3519C231.737 89.1895 230.218 91.6219 228.077 93.6476C225.936 95.6749 223.194 96.687 219.85 96.687C215.568 96.687 212.143 95.3706 209.574 92.7349C207.006 90.1007 205.72 85.8856 205.72 80.0882C205.72 74.2908 207.158 70.3708 210.033 67.5928C212.907 64.8164 216.709 63.4282 221.44 63.4282C229.147 63.4282 233 67.9689 233 77.0473H217.22C217.178 77.5335 217.158 78.2627 217.158 79.2366C217.158 83.1276 217.841 85.9055 219.207 87.5658C220.573 89.2277 222.235 90.0594 224.192 90.0594C227.168 90.0594 229.636 88.7018 231.593 85.9865H231.594ZM216.975 75.893H224.07C224.11 72.6503 223.876 69.9947 223.367 67.9277C222.857 65.8606 222.072 64.8271 221.013 64.8271C218.729 64.8271 217.383 68.5163 216.975 75.893Z" fill="#26393B"/>
<path d="M227.455 120.117H226.29V110.813H230.051C231.932 110.813 232.984 112.096 232.984 113.617C232.984 115.137 231.904 116.421 230.051 116.421H227.455V120.117ZM229.911 115.388C231.02 115.388 231.777 114.663 231.777 113.617C231.777 112.57 231.02 111.845 229.911 111.845H227.455V115.388H229.911Z" fill="#26393B"/>
<path d="M218.878 120.285C216.338 120.285 215.061 118.792 215.061 116.504V110.813H216.226V116.476C216.226 118.178 217.152 119.252 218.878 119.252C220.604 119.252 221.53 118.178 221.53 116.476V110.813H222.695V116.49C222.695 118.806 221.418 120.285 218.878 120.285Z" fill="#26393B"/>
<path d="M202.01 120.117H198.81V110.813H202.01C204.915 110.813 206.809 112.835 206.809 115.472C206.809 118.122 204.915 120.117 202.01 120.117ZM202.01 119.085C204.283 119.085 205.602 117.467 205.602 115.472C205.602 113.463 204.325 111.845 202.01 111.845H199.975V119.085H202.01Z" fill="#26393B"/>
<path d="M195.218 120.117H194.095L188.636 112.696V120.117H187.471V110.813H188.664L194.053 118.081V110.813H195.218V120.117Z" fill="#26393B"/>
<path d="M180.059 120.285C177.519 120.285 176.242 118.792 176.242 116.504V110.813H177.406V116.476C177.406 118.178 178.333 119.252 180.059 119.252C181.785 119.252 182.711 118.178 182.711 116.476V110.813H183.876V116.49C183.876 118.806 182.599 120.285 180.059 120.285Z" fill="#26393B"/>
<path d="M168.374 120.285C165.595 120.285 163.729 118.22 163.729 115.472C163.729 112.724 165.595 110.659 168.374 110.659C171.138 110.659 173.019 112.724 173.019 115.472C173.019 118.22 171.138 120.285 168.374 120.285ZM168.374 119.252C170.465 119.252 171.812 117.634 171.812 115.472C171.812 113.296 170.465 111.692 168.374 111.692C166.269 111.692 164.936 113.296 164.936 115.472C164.936 117.634 166.269 119.252 168.374 119.252Z" fill="#26393B"/>
<path d="M160.959 120.117H159.583L157.198 116.421H155.331V120.117H154.167V110.813H157.928C159.64 110.813 160.861 111.901 160.861 113.617C160.861 115.291 159.71 116.211 158.433 116.323L160.959 120.117ZM157.787 115.402C158.896 115.402 159.654 114.663 159.654 113.617C159.654 112.57 158.896 111.845 157.787 111.845H155.331V115.402H157.787Z" fill="#26393B"/>
<path d="M147.194 120.299C144.527 120.299 142.38 118.36 142.38 115.472C142.38 112.584 144.527 110.659 147.194 110.659C148.85 110.659 150 111.385 150.828 112.403L149.902 112.975C149.313 112.222 148.316 111.692 147.194 111.692C145.145 111.692 143.587 113.254 143.587 115.472C143.587 117.676 145.145 119.266 147.194 119.266C148.316 119.266 149.242 118.722 149.706 118.262V116.365H146.492V115.333H150.87V118.695C150 119.657 148.723 120.299 147.194 120.299Z" fill="#26393B"/>
<path d="M134.477 120.117H128.345V110.813H134.477V111.845H129.509V114.844H134.379V115.877H129.509V119.085H134.477V120.117Z" fill="#26393B"/>
<path d="M124.753 120.117H123.589V115.849H118.116V120.117H116.951V110.813H118.116V114.816H123.589V110.813H124.753V120.117Z" fill="#26393B"/>
<path d="M111.024 120.117H109.86V111.845H106.899V110.813H113.999V111.845H111.024V120.117Z" fill="#26393B"/>
<path d="M98.936 120.117H97.7712V112.459L94.5857 120.117H94.1085L90.937 112.459V120.117H89.7722V110.813H91.4422L94.3471 117.816L97.266 110.813H98.936V120.117Z" fill="#26393B"/>
<path d="M81.9044 120.285C79.1258 120.285 77.2594 118.22 77.2594 115.472C77.2594 112.724 79.1258 110.659 81.9044 110.659C84.669 110.659 86.5495 112.724 86.5495 115.472C86.5495 118.22 84.669 120.285 81.9044 120.285ZM81.9044 119.252C83.9954 119.252 85.3426 117.634 85.3426 115.472C85.3426 113.296 83.9954 111.692 81.9044 111.692C79.7994 111.692 78.4663 113.296 78.4663 115.472C78.4663 117.634 79.7994 119.252 81.9044 119.252Z" fill="#26393B"/>
<path d="M74.4892 120.117H73.114L70.7283 116.421H68.8619V120.117H67.6971V110.813H71.458C73.1701 110.813 74.391 111.901 74.391 113.617C74.391 115.291 73.2403 116.211 71.9632 116.323L74.4892 120.117ZM71.3177 115.402C72.4263 115.402 73.1841 114.663 73.1841 113.617C73.1841 112.57 72.4263 111.845 71.3177 111.845H68.8619V115.402H71.3177Z" fill="#26393B"/>
<path d="M59.743 120.117H58.5782V110.813H64.7108V111.845H59.743V114.844H64.6125V115.877H59.743V120.117Z" fill="#26393B"/>
<path d="M49.9655 120.117H48.8007V115.849H43.3277V120.117H42.163V110.813H43.3277V114.816H48.8007V110.813H49.9655V120.117Z" fill="#26393B"/>
<path d="M36.2365 120.117H35.0718V111.845H32.1107V110.813H39.2116V111.845H36.2365V120.117Z" fill="#26393B"/>
<path d="M25.3439 120.285C22.8039 120.285 21.5269 118.792 21.5269 116.504V110.813H22.6916V116.476C22.6916 118.178 23.6178 119.252 25.3439 119.252C27.07 119.252 27.9962 118.178 27.9962 116.476V110.813H29.161V116.49C29.161 118.806 27.884 120.285 25.3439 120.285Z" fill="#26393B"/>
<path d="M18.3778 120.117H17.0025L14.6168 116.421H12.7504V120.117H11.5856V110.813H15.3466C17.0586 110.813 18.2795 111.901 18.2795 113.617C18.2795 115.291 17.1288 116.211 15.8518 116.323L18.3778 120.117ZM15.2062 115.402C16.3149 115.402 17.0727 114.663 17.0727 113.617C17.0727 112.57 16.3149 111.845 15.2062 111.845H12.7504V115.402H15.2062Z" fill="#26393B"/>
<path d="M5.65919 120.117H4.49442V111.845H1.53339V110.813H8.63426V111.845H5.65919V120.117Z" fill="#26393B"/>
</svg>
